<svg width="185" height="32" viewBox="0 0 185 32" fill="none" xmlns="http://www.w3.org/2000/svg">
<g clip-path="url(#clip0_195_23981)">
<path d="M2.33544 17.7444C3.43264 17.5636 4.17772 16.5137 3.99962 15.3996C3.82152 14.2854 2.78768 13.5288 1.69048 13.7097C0.593283 13.8905 -0.151794 14.9404 0.0263065 16.0545C0.204407 17.1687 1.23824 17.9253 2.33544 17.7444Z" fill="url(#paint0_linear_195_23981)"/>
<path d="M15.8017 5.40333C17.019 4.16725 17.019 2.16315 15.8017 0.927065C14.5844 -0.309022 12.6108 -0.309022 11.3936 0.927065C10.1763 2.16315 10.1763 4.16724 11.3936 5.40333C12.6108 6.63942 14.5844 6.63942 15.8017 5.40333Z" fill="url(#paint1_linear_195_23981)"/>
<path d="M13.0418 31.075C14.7633 31.075 16.1588 29.6579 16.1588 27.9098C16.1588 26.1617 14.7633 24.7446 13.0418 24.7446C11.3203 24.7446 9.92479 26.1617 9.92479 27.9098C9.92479 29.6579 11.3203 31.075 13.0418 31.075Z" fill="url(#paint2_linear_195_23981)"/>
<path d="M24.8943 18.893C26.6158 18.893 28.0113 17.4758 28.0113 15.7278C28.0113 13.9797 26.6158 12.5626 24.8943 12.5626C23.1728 12.5626 21.7772 13.9797 21.7772 15.7278C21.7772 17.4758 23.1728 18.893 24.8943 18.893Z" fill="url(#paint3_linear_195_23981)"/>
<path d="M19.9073 19.1258C19.8958 19.1258 19.8857 19.1243 19.8742 19.1228C18.9933 19.0525 18.1643 18.6734 17.5674 18.0131L17.4117 17.8418C16.8898 17.265 16.5337 16.5476 16.4183 15.7761C16.4183 15.7673 16.4212 15.76 16.4212 15.7512C16.4861 14.8948 16.8667 14.0939 17.4333 13.4542C18.0821 12.7222 18.9745 12.2625 19.939 12.1527C20.0227 12.1424 20.1063 12.1307 20.1913 12.1131C21.7023 11.813 22.7893 10.3958 22.7028 8.83374C22.599 6.93637 20.8834 5.54556 19.0149 5.89692C17.5472 6.17216 16.4659 7.50587 16.4746 9.02113C16.4746 9.03284 16.4746 9.04309 16.4746 9.0548C16.489 9.95224 16.1963 10.8248 15.6052 11.4924L15.4509 11.6651C14.929 12.2537 14.25 12.6856 13.4959 12.8715C12.4867 12.7983 11.5265 12.4089 10.8013 11.69L10.4164 11.3079C9.78636 10.6828 9.39565 9.8644 9.22409 8.98599C9.22264 8.97867 9.2212 8.97135 9.21976 8.96257C9.03954 8.09148 8.30859 7.42243 7.4349 7.34337C6.15896 7.22918 5.10938 8.31987 5.25067 9.61113C5.34727 10.4954 6.022 11.223 6.88415 11.387C6.89136 11.387 6.89857 11.3899 6.90722 11.3914C7.77515 11.5466 8.58972 11.9243 9.21976 12.5494L9.6047 12.9315C10.3184 13.6401 10.722 14.5888 10.8244 15.596C10.6428 16.574 10.1742 17.4714 9.4216 18.1141L9.00927 18.4669C8.33454 19.0438 7.49545 19.3585 6.61888 19.4464C6.61167 19.4464 6.60302 19.4478 6.59581 19.4493C5.725 19.5474 4.99837 20.2208 4.83545 21.0963C4.59901 22.3744 5.56641 23.5412 6.84667 23.5236C7.72324 23.5119 8.50178 22.9 8.74543 22.045C8.74687 22.0377 8.74976 22.0304 8.7512 22.023C8.98764 21.1607 9.43602 20.3746 10.1108 19.7977L10.5231 19.4449C11.3305 18.7554 12.3656 18.4377 13.4195 18.4684C13.4368 18.4684 13.4556 18.4684 13.4743 18.4684C14.2428 18.6441 14.9333 19.0818 15.4697 19.6733C16.1257 20.3994 16.4919 21.3452 16.5077 22.3305C16.5077 22.4154 16.5135 22.5018 16.5221 22.5896C16.6721 24.1459 17.9595 25.3786 19.4979 25.44C21.3678 25.5147 22.8932 23.9131 22.7274 21.9908C22.5962 20.4814 21.3909 19.2604 19.9059 19.1258H19.9073Z" fill="url(#paint4_linear_195_23981)"/>
<path d="M44.562 15.5116C44.562 15.0921 44.7018 14.7451 44.9867 14.4706C45.2871 14.1805 45.7066 14.0614 46.1261 14.0614H52.8539C52.9367 14.0614 53.004 14.1288 53.004 14.2116V23.7517C53.004 24.9325 52.0511 25.8855 50.8754 25.8855H40.5585C39.6729 25.8855 38.8442 25.7197 38.0777 25.3883C37.3163 25.0516 36.643 24.601 36.063 24.0365C35.4829 23.472 35.0271 22.7987 34.6957 22.0322C34.3642 21.2657 34.1933 20.4473 34.1933 19.5824V11.4926C34.1933 10.6276 34.359 9.80933 34.6957 9.04281C35.0323 8.27629 35.4829 7.603 36.063 7.03847C36.643 6.47394 37.3163 6.01299 38.0777 5.68671C38.839 5.35006 39.6729 5.18433 40.5585 5.18433H51.5591C51.9786 5.18433 52.3204 5.32416 52.5949 5.60902C52.8642 5.89387 53.004 6.24088 53.004 6.65521C53.004 7.04883 52.8694 7.38547 52.5949 7.66515C52.3256 7.95 51.9786 8.08466 51.5591 8.08466H40.5585C40.0613 8.08466 39.6055 8.17271 39.1912 8.3488C38.7717 8.51971 38.4091 8.76313 38.0984 9.07388C37.7876 9.38463 37.5442 9.74718 37.3578 10.1512C37.1713 10.5551 37.0833 11.0005 37.0833 11.4718V19.5824C37.0833 20.0537 37.1765 20.4991 37.3578 20.9186C37.539 21.3382 37.7928 21.7059 38.0984 22.0166C38.4091 22.3274 38.7717 22.5656 39.1912 22.7417C39.6107 22.9126 40.0665 23.0059 40.5585 23.0059H49.9587C50.0416 23.0059 50.1089 22.9385 50.1089 22.8557V17.1223C50.1089 17.0394 50.0416 16.9721 49.9587 16.9721H46.0018C45.603 16.9721 45.2664 16.8323 44.9815 16.5422C44.7018 16.2522 44.562 15.9104 44.562 15.5116Z" fill="white"/>
<path d="M58.4417 14.077H58.3485V13.9734C58.364 14.02 58.4003 14.0614 58.4417 14.077Z" fill="#231F20"/>
<path d="M62.5381 16.9877C62.4707 16.9929 62.3982 16.998 62.3309 16.998H58.374V16.9877H62.5381Z" fill="#231F20"/>
<path d="M69.9702 5.5106C68.7169 5.14805 67.6758 5.17913 67.6758 5.17913H64.7393V5.17395H67.8986C68.6288 5.17395 69.3176 5.28789 69.9702 5.5106Z" fill="#231F20"/>
<path d="M80.2875 16.9877V19.5877C80.2875 20.059 80.3807 20.5044 80.562 20.9239C80.7433 21.3434 81.0022 21.7111 81.3182 22.0167C81.6341 22.3274 82.007 22.5657 82.4265 22.7418C82.846 22.9127 83.3018 23.0059 83.7938 23.0059H94.841C95.2294 23.0059 95.5764 23.1406 95.8561 23.4151C96.1358 23.6896 96.2808 24.0314 96.2808 24.4509C96.2808 24.8497 96.1409 25.1915 95.8561 25.4712C95.5764 25.756 95.2346 25.9011 94.841 25.9011H83.7938C82.9082 25.9011 82.0743 25.7353 81.2974 25.3987C80.5206 25.062 79.8473 24.6115 79.2724 24.0417C78.6975 23.472 78.2469 22.8039 77.9051 22.0374C77.5684 21.2709 77.3975 20.4578 77.3975 19.5877V11.4512C77.3975 10.5863 77.5633 9.77312 77.9051 9.02214C78.2417 8.26599 78.6975 7.60823 79.2724 7.03852C79.8473 6.46881 80.5257 6.01822 81.2974 5.68158C82.0743 5.34493 82.903 5.1792 83.7938 5.1792H94.841C95.2294 5.1792 95.5764 5.31386 95.8561 5.58835C96.1358 5.86285 96.2808 6.20468 96.2808 6.62419C96.2808 7.02298 96.1409 7.36481 95.8561 7.64449C95.5764 7.92934 95.2346 8.06918 94.841 8.06918H83.7938C83.2966 8.06918 82.846 8.15722 82.4265 8.33331C82.007 8.50423 81.6393 8.74765 81.3182 9.0584C81.0022 9.36915 80.7433 9.72651 80.562 10.1357C80.3807 10.5448 80.2875 10.9851 80.2875 11.4564V14.0874H94.8462C95.2346 14.0874 95.5816 14.222 95.8613 14.4965C96.1409 14.771 96.286 15.1128 96.286 15.5324C96.286 15.9312 96.1461 16.273 95.8613 16.5527C95.5816 16.8375 95.2398 16.9825 94.8462 16.9825H80.2875V16.9877Z" fill="white"/>
<path d="M117.479 5.60389C117.21 5.31904 116.873 5.1792 116.459 5.1792H105.22C104.417 5.1792 103.666 5.3294 102.962 5.64015C102.258 5.9509 101.641 6.37559 101.103 6.9194C100.569 7.46321 100.155 8.09507 99.8648 8.80462C99.5696 9.52452 99.4297 10.2859 99.4297 11.099C99.4297 11.9121 99.5903 12.6786 99.9011 13.3934C100.217 14.1133 100.642 14.7348 101.175 15.263C101.709 15.7913 102.34 16.2108 103.05 16.5216C103.765 16.8323 104.526 16.9825 105.329 16.9825H111.135V14.1288C111.135 14.1288 111.135 14.1029 111.135 14.0874H105.293C104.49 14.0874 103.796 13.7973 103.216 13.2276C102.636 12.6579 102.33 11.9587 102.304 11.1352C102.304 10.7364 102.34 10.3118 102.485 9.93886C102.63 9.56596 102.838 9.23967 103.107 8.97035C103.376 8.69586 103.682 8.47833 104.039 8.31778C104.391 8.15722 104.775 8.07436 105.184 8.07436H116.448C116.858 8.07436 117.199 7.93452 117.469 7.65484C117.738 7.36999 117.868 7.03852 117.868 6.65008C117.868 6.23575 117.733 5.88357 117.469 5.60907L117.479 5.60389Z" fill="white"/>
<path d="M117.831 17.6817C117.515 16.9618 117.091 16.3403 116.557 15.812C116.024 15.2837 115.397 14.8642 114.682 14.5535C113.968 14.2427 113.206 14.0925 112.404 14.0925H107.96C108.374 15.0092 108.291 16.1797 107.696 16.9929H112.44C113.243 16.9929 113.937 17.2829 114.517 17.8526C115.097 18.4223 115.402 19.1215 115.428 19.945C115.428 20.3438 115.392 20.7685 115.247 21.1414C115.102 21.5143 114.895 21.8406 114.625 22.1099C114.356 22.3844 114.051 22.6019 113.693 22.7625C113.341 22.923 112.958 23.0059 112.549 23.0059H101.284C100.875 23.0059 100.533 23.1457 100.264 23.4254C99.9943 23.7102 99.8596 24.0417 99.8596 24.4302C99.8596 24.8445 99.9943 25.1967 100.264 25.4712C100.533 25.756 100.87 25.8959 101.284 25.8959H112.523C113.325 25.8959 114.076 25.7457 114.781 25.4349C115.485 25.1242 116.102 24.6995 116.64 24.1557C117.174 23.6118 117.588 22.98 117.878 22.2704C118.173 21.5505 118.313 20.7892 118.313 19.9761C118.313 19.1629 118.152 18.3964 117.842 17.6817H117.831Z" fill="white"/>
<path d="M138.833 5.1792C139.242 5.1792 139.589 5.31386 139.864 5.58835C140.144 5.86285 140.278 6.20985 140.278 6.62937V24.4457C140.278 24.8652 140.138 25.2122 139.864 25.4867C139.584 25.7612 139.242 25.8959 138.833 25.8959C138.445 25.8959 138.113 25.7612 137.839 25.4867C137.559 25.2122 137.424 24.8652 137.424 24.4457V17.0084H124.259V24.4457C124.259 24.8652 124.119 25.2122 123.845 25.4867C123.565 25.7612 123.223 25.8959 122.814 25.8959C122.426 25.8959 122.094 25.7612 121.82 25.4867C121.54 25.2122 121.405 24.8652 121.405 24.4457V6.62937C121.405 6.20985 121.545 5.86285 121.82 5.58835C122.099 5.31386 122.431 5.1792 122.814 5.1792C123.223 5.1792 123.57 5.31386 123.845 5.58835C124.124 5.86285 124.259 6.20985 124.259 6.62937V14.1029H137.424V6.62937C137.424 6.20985 137.564 5.86285 137.839 5.58835C138.118 5.31386 138.45 5.1792 138.833 5.1792Z" fill="white"/>
<path fill-rule="evenodd" clip-rule="evenodd" d="M166.79 5.23619C167.412 5.0601 168.08 5.31906 168.421 5.87323L175.367 17.1535L182.317 5.87323C182.659 5.31906 183.322 5.0601 183.949 5.23619C184.575 5.41229 185.005 5.982 185.005 6.62939V24.4457C185.005 25.2485 184.358 25.8959 183.555 25.8959C182.752 25.8959 182.105 25.2485 182.105 24.4457V11.7516L176.605 20.6805C176.34 21.1104 175.874 21.3693 175.372 21.3693C174.87 21.3693 174.403 21.1104 174.139 20.6805L168.634 11.7516V24.4457C168.634 25.2485 167.986 25.8959 167.184 25.8959C166.381 25.8959 165.733 25.2485 165.733 24.4457V6.62939C165.733 5.982 166.163 5.41229 166.79 5.23619Z" fill="white"/>
<path d="M70.5231 20.3021L68.3018 22.1667L70.1664 24.3881L72.3878 22.5235L70.5231 20.3021Z" fill="#FD9E4B"/>
<path fill-rule="evenodd" clip-rule="evenodd" d="M153.019 8.2452L159.835 24.9895C160.135 25.7301 160.985 26.0874 161.725 25.7871C162.466 25.4867 162.823 24.6373 162.523 23.8967L155.614 6.91933C155.184 5.86796 154.159 5.17395 153.024 5.17395C151.89 5.17395 150.865 5.86278 150.43 6.91415L143.469 23.8915C143.163 24.6321 143.52 25.4815 144.261 25.7819C145.002 26.0874 145.851 25.7301 146.152 24.9895L153.019 8.2452Z" fill="white"/>
<path d="M153.019 8.18311L152.268 10.0994C152.268 10.0994 152.558 9.37431 153.019 9.37431C153.48 9.37431 153.77 10.0994 153.77 10.0994L153.019 8.18311Z" fill="white"/>
<path d="M147.865 16.4697H157.809V19.3701H147.865V16.4697Z" fill="white"/>
<path fill-rule="evenodd" clip-rule="evenodd" d="M56.8981 25.8751C56.4786 25.8751 56.1368 25.7353 55.8623 25.4504C55.593 25.1656 55.4531 24.8238 55.4531 24.4094V24.5234C55.4531 24.8911 55.5412 25.207 55.8209 25.4763C56.1005 25.7457 56.4941 25.8803 56.9137 25.8803C56.981 25.8803 57.0431 25.8751 57.1105 25.87H56.8981V25.8751Z" fill="black"/>
<path fill-rule="evenodd" clip-rule="evenodd" d="M71.3428 15.9001C71.3532 15.8949 71.3635 15.8897 71.3739 15.8845C72.881 15.0766 74.1655 13.7093 74.2639 11.3787C74.2691 11.2854 74.2691 11.187 74.2691 11.0886C74.2691 8.5612 72.9225 6.90386 71.3428 6.06484C70.8819 5.82142 70.4106 5.64532 69.9703 5.51585C68.717 5.1533 67.676 5.18438 67.676 5.18438H64.7394V5.1792H57.5818C56.4061 5.1792 55.4531 6.13217 55.4531 7.31302V16.8531C55.4531 16.8738 55.4583 16.8893 55.4635 16.9048L55.4531 24.3991V24.4146C55.4531 24.8238 55.593 25.1708 55.8623 25.4557C56.1368 25.7405 56.4786 25.8803 56.8981 25.8803H57.1105C57.4523 25.8441 57.7579 25.7146 58.0013 25.4867C58.2913 25.2174 58.3742 24.9015 58.3742 24.5338V16.9877H63.9625L68.6497 22.5501L68.8931 22.8402L70.8404 25.1501L71.0165 25.3573C71.0165 25.3573 71.3066 25.8234 71.9229 25.8803C72.2285 25.9166 72.5962 25.8545 73.0209 25.4971C73.4404 25.1449 73.5647 24.7875 73.5854 24.482C73.6786 23.9019 73.2332 23.4927 73.2332 23.4927L73.0416 23.2649L71.0787 20.9342L70.8612 20.6753L67.6604 16.9774H67.6708C67.676 16.9877 69.6285 16.8064 71.3428 15.9001ZM67.5154 14.077H58.3535V13.9734C58.3483 13.9631 58.3483 13.9475 58.3483 13.9372V8.20383C58.3483 8.12097 58.4156 8.05364 58.4985 8.05364H67.8987C68.3907 8.05364 68.8465 8.14686 69.266 8.31778C69.4162 8.37993 69.5612 8.45244 69.6958 8.53012C69.9393 8.67514 70.162 8.84087 70.3588 9.04286C70.6644 9.35361 70.9181 9.72133 71.0994 10.1408C71.2703 10.5345 71.3635 10.9488 71.3739 11.389C71.3428 12.4818 70.5193 13.1344 69.67 13.5228C68.6652 13.9838 67.5154 14.077 67.5154 14.077Z" fill="white"/>
</g>
<defs>
<linearGradient id="paint0_linear_195_23981" x1="0" y1="15.5375" x2="28.0113" y2="15.5375" gradientUnits="userSpaceOnUse">
<stop stop-color="#FD9E4B"/>
<stop offset="0.16" stop-color="#FD714B"/>
<stop offset="0.32" stop-color="#FD4D55"/>
<stop offset="0.5" stop-color="#E13761"/>
<stop offset="0.66" stop-color="#C1246B"/>
<stop offset="0.82" stop-color="#A11478"/>
<stop offset="1" stop-color="#6D0D51"/>
</linearGradient>
<linearGradient id="paint1_linear_195_23981" x1="0" y1="15.5375" x2="28.0113" y2="15.5375" gradientUnits="userSpaceOnUse">
<stop stop-color="#FD9E4B"/>
<stop offset="0.16" stop-color="#FD714B"/>
<stop offset="0.32" stop-color="#FD4D55"/>
<stop offset="0.5" stop-color="#E13761"/>
<stop offset="0.66" stop-color="#C1246B"/>
<stop offset="0.82" stop-color="#A11478"/>
<stop offset="1" stop-color="#6D0D51"/>
</linearGradient>
<linearGradient id="paint2_linear_195_23981" x1="0" y1="15.5375" x2="28.0113" y2="15.5375" gradientUnits="userSpaceOnUse">
<stop stop-color="#FD9E4B"/>
<stop offset="0.16" stop-color="#FD714B"/>
<stop offset="0.32" stop-color="#FD4D55"/>
<stop offset="0.5" stop-color="#E13761"/>
<stop offset="0.66" stop-color="#C1246B"/>
<stop offset="0.82" stop-color="#A11478"/>
<stop offset="1" stop-color="#6D0D51"/>
</linearGradient>
<linearGradient id="paint3_linear_195_23981" x1="0" y1="15.5375" x2="28.0113" y2="15.5375" gradientUnits="userSpaceOnUse">
<stop stop-color="#FD9E4B"/>
<stop offset="0.16" stop-color="#FD714B"/>
<stop offset="0.32" stop-color="#FD4D55"/>
<stop offset="0.5" stop-color="#E13761"/>
<stop offset="0.66" stop-color="#C1246B"/>
<stop offset="0.82" stop-color="#A11478"/>
<stop offset="1" stop-color="#6D0D51"/>
</linearGradient>
<linearGradient id="paint4_linear_195_23981" x1="0" y1="15.5375" x2="28.0113" y2="15.5375" gradientUnits="userSpaceOnUse">
<stop stop-color="#FD9E4B"/>
<stop offset="0.16" stop-color="#FD714B"/>
<stop offset="0.32" stop-color="#FD4D55"/>
<stop offset="0.5" stop-color="#E13761"/>
<stop offset="0.66" stop-color="#C1246B"/>
<stop offset="0.82" stop-color="#A11478"/>
<stop offset="1" stop-color="#6D0D51"/>
</linearGradient>
<clipPath id="clip0_195_23981">
<rect width="185" height="31.075" fill="white"/>
</clipPath>
</defs>
</svg>
